<?xml version="1.0" encoding="utf-8"?>
<!-- Generator: Adobe Illustrator 17.1.0, SVG Export Plug-In . SVG Version: 6.00 Build 0)  -->
<!DOCTYPE svg PUBLIC "-//W3C//DTD SVG 1.1 Tiny//EN" "http://www.w3.org/Graphics/SVG/1.1/DTD/svg11-tiny.dtd">
<svg version="1.1" baseProfile="tiny" id="Layer_1" xmlns="http://www.w3.org/2000/svg" xmlns:xlink="http://www.w3.org/1999/xlink"
	 x="0px" y="0px" viewBox="0 0 150 150" xml:space="preserve">
<g>
	<path fill="none" stroke="#007481" stroke-width="2" stroke-miterlimit="10" d="M87.423,126.444H31.697V18.719h55.727
		c8.886,0,16.089,7.203,16.089,16.089v75.547C103.512,119.24,96.309,126.444,87.423,126.444z"/>
	<path fill="none" stroke="#007481" stroke-width="2" stroke-miterlimit="10" d="M31.009,39.48c-4.314,0-7.812-3.498-7.812-7.812
		s3.498-7.812,7.812-7.812s7.812,3.498,7.812,7.812"/>
	<circle fill="#007481" stroke="#007481" stroke-width="0.704" stroke-miterlimit="10" cx="38.679" cy="34.526" r="2.858"/>
	<path fill="none" stroke="#007481" stroke-width="2" stroke-miterlimit="10" d="M31.009,59.497c-4.314,0-7.812-3.498-7.812-7.812
		s3.498-7.812,7.812-7.812s7.812,3.498,7.812,7.812"/>
	<circle fill="#007481" stroke="#007481" stroke-width="0.704" stroke-miterlimit="10" cx="38.679" cy="54.543" r="2.858"/>
	<path fill="none" stroke="#007481" stroke-width="2" stroke-miterlimit="10" d="M31.009,79.514c-4.314,0-7.812-3.498-7.812-7.812
		c0-4.314,3.498-7.812,7.812-7.812s7.812,3.498,7.812,7.812"/>
	<circle fill="#007481" stroke="#007481" stroke-width="0.704" stroke-miterlimit="10" cx="38.679" cy="74.561" r="2.858"/>
	<path fill="none" stroke="#007481" stroke-width="2" stroke-miterlimit="10" d="M31.009,99.531c-4.314,0-7.812-3.498-7.812-7.812
		c0-4.314,3.498-7.812,7.812-7.812s7.812,3.498,7.812,7.812"/>
	<circle fill="#007481" stroke="#007481" stroke-width="0.704" stroke-miterlimit="10" cx="38.679" cy="94.578" r="2.858"/>
	<path fill="none" stroke="#007481" stroke-width="2" stroke-miterlimit="10" d="M31.009,119.548c-4.314,0-7.812-3.498-7.812-7.812
		c0-4.314,3.498-7.812,7.812-7.812s7.812,3.498,7.812,7.812"/>
	<circle fill="#007481" stroke="#007481" stroke-width="0.704" stroke-miterlimit="10" cx="38.679" cy="114.595" r="2.858"/>
	<line fill="none" stroke="#007481" stroke-width="2" stroke-miterlimit="10" x1="46.012" y1="40.994" x2="96.345" y2="40.994"/>
	<line fill="none" stroke="#007481" stroke-width="5" stroke-miterlimit="10" x1="46.012" y1="33.86" x2="72.679" y2="33.86"/>
	<line fill="none" stroke="#007481" stroke-width="2" stroke-miterlimit="10" x1="46.012" y1="46.327" x2="96.345" y2="46.327"/>
	<line fill="none" stroke="#007481" stroke-width="2" stroke-miterlimit="10" x1="46.012" y1="51.661" x2="96.345" y2="51.661"/>
	<line fill="none" stroke="#007481" stroke-width="2" stroke-miterlimit="10" x1="46.012" y1="56.994" x2="96.345" y2="56.994"/>
	<line fill="none" stroke="#007481" stroke-width="2" stroke-miterlimit="10" x1="46.012" y1="62.327" x2="96.345" y2="62.327"/>
	<line fill="none" stroke="#007481" stroke-width="2" stroke-miterlimit="10" x1="46.012" y1="67.661" x2="96.345" y2="67.661"/>
	<line fill="none" stroke="#007481" stroke-width="2" stroke-miterlimit="10" x1="46.012" y1="72.994" x2="96.345" y2="72.994"/>
	<line fill="none" stroke="#007481" stroke-width="2" stroke-miterlimit="10" x1="46.012" y1="78.327" x2="96.345" y2="78.327"/>
	<line fill="none" stroke="#007481" stroke-width="2" stroke-miterlimit="10" x1="46.012" y1="83.661" x2="96.345" y2="83.661"/>
	<line fill="none" stroke="#007481" stroke-width="2" stroke-miterlimit="10" x1="46.012" y1="88.994" x2="96.345" y2="88.994"/>
	<line fill="none" stroke="#007481" stroke-width="2" stroke-miterlimit="10" x1="46.012" y1="94.327" x2="96.345" y2="94.327"/>
	<line fill="none" stroke="#007481" stroke-width="2" stroke-miterlimit="10" x1="46.012" y1="99.661" x2="69.679" y2="99.661"/>
	<line fill="none" stroke="#007481" stroke-width="2" stroke-miterlimit="10" x1="75.012" y1="110.327" x2="86.845" y2="110.327"/>
	
		<rect x="115.51" y="25.157" fill="none" stroke="#007481" stroke-width="2" stroke-miterlimit="10" width="6.413" height="96.692"/>
	<path fill="none" stroke="#007481" stroke-width="2" stroke-linejoin="round" stroke-miterlimit="10" d="M121.481,121.784
		l-2.729,7.674c-0.012,0.034-0.06,0.034-0.072,0l-2.729-7.674"/>
	
		<rect x="117.121" y="20.29" fill="#007481" stroke="#007481" stroke-width="2" stroke-linejoin="round" stroke-miterlimit="10" width="3.191" height="3.701"/>
	<polyline fill="none" stroke="#007481" stroke-width="2" stroke-linejoin="round" stroke-miterlimit="10" points="115.51,31.95 
		121.923,31.95 125.226,31.95 125.226,52.355 	"/>
	<path fill="none" stroke="#007481" stroke-width="2" stroke-miterlimit="10" d="M101.592,27.177c3.613,2.95,5.92,7.44,5.92,12.469
		v75.547c0,8.886-7.203,16.089-16.089,16.089H35.697v-4.837"/>
</g>
</svg>
