<?xml version="1.0" encoding="utf-8"?>
<!-- Generator: Adobe Illustrator 17.1.0, SVG Export Plug-In . SVG Version: 6.00 Build 0)  -->
<!DOCTYPE svg PUBLIC "-//W3C//DTD SVG 1.1 Tiny//EN" "http://www.w3.org/Graphics/SVG/1.1/DTD/svg11-tiny.dtd">
<svg version="1.1" baseProfile="tiny" id="Layer_1" xmlns="http://www.w3.org/2000/svg" xmlns:xlink="http://www.w3.org/1999/xlink"
	 x="0px" y="0px" viewBox="0 0 150 150" xml:space="preserve">
<polyline fill="none" stroke="#007481" stroke-width="2" stroke-miterlimit="10" points="105.708,33.749 105.708,112.771 
	93.005,125.168 44.292,125.168 44.292,33.75 "/>
<path fill="none" stroke="#007481" stroke-width="2" stroke-miterlimit="10" d="M108.56,27.177h6.808
	c2.972,0,5.381,2.409,5.381,5.381v97.364c0,2.972-2.409,5.381-5.381,5.381H34.632c-2.972,0-5.381-2.409-5.381-5.381V32.558
	c0-2.972,2.409-5.381,5.381-5.381h6.809"/>
<path fill="none" stroke="#007481" stroke-width="2" stroke-miterlimit="10" d="M110.134,33.75H39.866v-0.67
	c0-9.236,7.487-10.318,16.722-10.318h36.823c9.236,0,16.722,1.082,16.722,10.318V33.75z"/>
<path fill="none" stroke="#007481" stroke-width="2" stroke-miterlimit="10" d="M85.388,22.762H64.612v-0.864
	c0-5.68,4.604-10.284,10.284-10.284h0.208c5.68,0,10.284,4.604,10.284,10.284V22.762z"/>
<circle fill="#007481" cx="74.978" cy="17.166" r="1.715"/>
<path fill="none" stroke="#007481" stroke-width="2" stroke-miterlimit="10" d="M105.659,118.97"/>
<path fill="none" stroke="#007481" stroke-width="2" stroke-miterlimit="10" d="M92.956,118.97"/>
<polyline fill="#007481" points="106.532,111.591 92.956,111.591 92.956,125.168 "/>
<rect x="54.134" y="44.361" fill="none" stroke="#007481" stroke-width="2" stroke-miterlimit="10" width="7.787" height="7.787"/>
<rect x="54.134" y="60.879" fill="none" stroke="#007481" stroke-width="2" stroke-miterlimit="10" width="7.787" height="7.787"/>
<rect x="54.134" y="77.397" fill="none" stroke="#007481" stroke-width="2" stroke-miterlimit="10" width="7.787" height="7.787"/>
<line fill="none" stroke="#007481" stroke-width="2" stroke-miterlimit="10" x1="69.544" y1="48.797" x2="99.744" y2="48.797"/>
<line fill="none" stroke="#007481" stroke-width="2" stroke-miterlimit="10" x1="69.544" y1="64.773" x2="99.744" y2="64.773"/>
<line fill="none" stroke="#007481" stroke-width="2" stroke-miterlimit="10" x1="69.544" y1="81.24" x2="99.744" y2="81.24"/>
<rect x="54.134" y="93.684" fill="none" stroke="#007481" stroke-width="2" stroke-miterlimit="10" width="7.787" height="7.787"/>
<line fill="none" stroke="#007481" stroke-width="2" stroke-miterlimit="10" x1="69.544" y1="97.528" x2="99.744" y2="97.528"/>
</svg>
